<svg width="1642" height="657" viewBox="0 0 1642 657" fill="none" xmlns="http://www.w3.org/2000/svg">
<g filter="url(#filter0_di_155_14040)">
<path d="M495.2 40.9334C481.333 43.7334 470.533 52.5334 464.133 66.2667L462.201 70.3533C461.437 71.97 461.055 72.7784 460.861 73.6437C460.667 74.5089 460.667 75.4031 460.667 77.1914V135.6V194.067C460.667 195.826 460.667 196.706 460.855 197.559C461.043 198.411 461.413 199.209 462.154 200.805L464.133 205.067C469.2 215.733 475.867 222.533 485.6 226.933C493.6 230.533 495.2 230.8 518.8 231.467C543.467 232.267 543.6 232.267 549.067 236.133C552.133 238.267 560.933 246.667 568.667 254.933C576.4 263.2 584.8 270.933 587.333 272.133C591.6 274.267 592.4 274.267 596.533 272.267C599.067 271.067 607.733 262.933 615.867 254.267C636.4 232.267 636.133 232.533 660.667 231.467C678.8 230.8 681.6 230.267 689.067 226.933C698.8 222.533 705.467 215.733 710.533 205.067L712.512 200.805C713.253 199.209 713.623 198.411 713.812 197.559C714 196.706 714 195.826 714 194.067V135.6V77.1332C714 75.3737 714 74.4939 713.812 73.6416C713.623 72.7894 713.253 71.9914 712.512 70.3955L710.533 66.1334C705.6 55.6001 698.8 48.6667 689.067 44.1334L683.829 41.7223C682.254 40.9973 681.466 40.6348 680.626 40.4495C679.786 40.2641 678.919 40.2616 677.186 40.2564L590.667 40.0001C541.2 40.0001 498.133 40.4001 495.2 40.9334ZM604 95.4667C620.8 108.933 617.733 134.8 598.4 142.933C592 145.467 582.667 145.467 576.267 142.933C557.067 134.8 554 108.933 570.8 95.3334C579.6 88.2667 595.067 88.2667 604 95.4667ZM614.267 156.267C624.667 159.333 632 170.267 632 182.533V182.533C632 184.595 630.328 186.267 628.267 186.267H587.333H546.133C544.219 186.267 542.667 184.715 542.667 182.8V182.8C542.667 170.533 549.733 159.467 559.733 156.4C568.667 153.6 605.2 153.6 614.267 156.267Z" fill="#0478FF"/>
</g>
<g filter="url(#filter1_di_155_14040)">
<path d="M40 403.467V604.934H118.667H197.333V558.4V512L219.733 511.067C277.733 508.534 316.4 498.134 347.733 476.534C360.8 467.467 378 449.2 385.2 436.267C397.333 415.067 404 386.667 404 356.534C404 312 391.867 278.267 366.667 252.8C341.467 227.334 312.933 214.4 262.933 206C246.933 203.334 240.667 203.067 143.067 202.667L40 202.134V403.467ZM228.533 325.467C244 330.134 252 340.667 252 356.267C252 368.534 249.867 374.134 242.933 380.934C234.933 388.534 229.6 390.4 211.067 391.2L196 392V357.734V323.6H209.067C216.667 323.6 224.933 324.4 228.533 325.467Z" fill="#0A0A0A"/>
</g>
<g filter="url(#filter2_di_155_14040)">
<path d="M1205.07 224L1141.33 228.133V261.867V295.6H1124H1106.67L1106.93 342.533L1107.33 389.6L1124.27 390L1141.2 390.4L1141.6 456L1142.13 521.6L1145.6 534.533C1155.47 570.533 1176.53 594.4 1209.07 606.267C1232.27 614.667 1258.67 617.2 1287.33 613.733C1305.73 611.467 1333.07 605.733 1335.07 603.733C1335.87 602.933 1335.47 587.733 1334.13 564.667C1332.93 544 1332 525.333 1332 523.333C1332 520 1331.87 519.867 1327.73 521.067C1325.33 521.733 1318.8 522.4 1313.2 522.4C1296.13 522.533 1283.47 514.933 1280.13 502.667C1279.2 499.467 1278.67 477.333 1278.67 443.867V390.267H1305.33H1332V342.933V295.6H1305.33H1278.67V257.6V219.6L1273.73 219.733C1270.93 219.867 1240 221.733 1205.07 224Z" fill="#0A0A0A"/>
</g>
<g filter="url(#filter3_di_155_14040)">
<path d="M907.467 284.933C880.933 288 858.533 294.267 839.867 303.6C826.933 310.133 820.133 314.933 810.267 324.667C799.867 334.8 793.6 344.533 788.8 358.267C784.933 368.8 784.667 370.8 784.8 388.267C784.8 410 786.667 418.8 794.8 434.267C813.2 469.867 849.867 487.067 925.2 495.6C950.4 498.4 953.733 499.6 956.8 506.933C960 514.8 955.733 520.933 945.2 523.6C934.267 526.4 922.533 521.067 920.267 512.533L919.2 508.267L851.6 507.867L784 507.6V513.467C784 521.467 787.333 536.933 790.933 545.333C811.2 593.6 868.533 619.2 950 616.533C985.467 615.333 1012.13 609.6 1036.67 597.733C1061.73 585.6 1077.07 571.467 1086.13 552.267C1092.93 538 1094.8 528.933 1094.93 511.6C1094.93 481.867 1087.87 463.067 1070.13 445.6C1048.4 424.133 1021.6 414.667 960.8 406.933C945.6 405.067 932.667 402.8 929.867 401.467C924.4 398.8 921.333 393.6 921.333 386.933C921.333 372.933 946 369.467 952.4 382.667L954.933 387.6H1020.93H1087.07L1086.27 376.533C1084.4 349.733 1070.53 326.4 1047.47 311.067C1029.07 298.8 1008 291.333 979.333 286.933C963.067 284.4 921.867 283.333 907.467 284.933Z" fill="#0A0A0A"/>
</g>
<g filter="url(#filter4_di_155_14040)">
<path d="M555.333 288.267C480 300 430.533 346.4 417.067 418C414.8 429.867 414.8 469.467 417.2 482.267C419.733 496.667 427.2 518.667 433.467 530.267C464.267 587.2 529.867 618.8 605.867 612.934C654.933 609.2 693.6 592.267 722.667 561.467C750.8 531.867 764 496.134 764 449.467C764 400.534 748.533 362.134 716.667 331.867C691.733 308.267 661.333 294.134 622.667 288.267C607.2 285.867 570.267 285.867 555.333 288.267ZM608.667 409.2C623.467 416.8 632 431.467 632 449.467C632 472.8 620.667 488.4 600 493.734C589.2 496.4 580 495.334 569.467 490.134C560.267 485.467 555.6 480.667 550.8 470.267C548 464.134 547.333 460.934 547.333 450.934C547.333 436.134 550.133 427.467 557.6 418.934C566.667 408.534 576 404.8 591.333 405.467C599.6 405.733 603.467 406.533 608.667 409.2Z" fill="#0A0A0A"/>
</g>
<g filter="url(#filter5_di_155_14040)">
<path d="M1544.67 288.134C1522.93 292.534 1508.67 300.8 1499.47 314.534L1495.07 320.934L1492.8 310C1491.47 303.867 1490.13 297.867 1489.87 296.534C1489.2 294.4 1484.93 294.267 1425.2 294.267H1361.33V449.6V604.934H1430.67H1500V538.534C1500 465.467 1500.4 461.2 1508.13 445.6C1521.07 419.2 1552.93 406.267 1587.33 413.6C1592.4 414.667 1597.07 415.6 1597.47 415.6C1598 415.6 1598.67 400.4 1599.2 381.867C1599.6 363.467 1600.4 335.6 1600.8 320.134L1601.73 291.867L1591.87 289.6C1578.4 286.534 1556.27 285.867 1544.67 288.134Z" fill="#0A0A0A"/>
</g>
<defs>
<filter id="filter0_di_155_14040" x="436.667" y="32" width="285.333" height="265.75" filterUnits="userSpaceOnUse" color-interpolation-filters="sRGB">
<feFlood flood-opacity="0" result="BackgroundImageFix"/>
<feColorMatrix in="SourceAlpha" type="matrix" values="0 0 0 0 0 0 0 0 0 0 0 0 0 0 0 0 0 0 127 0" result="hardAlpha"/>
<feOffset dx="-8" dy="8"/>
<feGaussianBlur stdDeviation="8"/>
<feComposite in2="hardAlpha" operator="out"/>
<feColorMatrix type="matrix" values="0 0 0 0 0 0 0 0 0 0 0 0 0 0 0 0 0 0 0.15 0"/>
<feBlend mode="normal" in2="BackgroundImageFix" result="effect1_dropShadow_155_14040"/>
<feBlend mode="normal" in="SourceGraphic" in2="effect1_dropShadow_155_14040" result="shape"/>
<feColorMatrix in="SourceAlpha" type="matrix" values="0 0 0 0 0 0 0 0 0 0 0 0 0 0 0 0 0 0 127 0" result="hardAlpha"/>
<feOffset dx="-4" dy="4"/>
<feGaussianBlur stdDeviation="4"/>
<feComposite in2="hardAlpha" operator="arithmetic" k2="-1" k3="1"/>
<feColorMatrix type="matrix" values="0 0 0 0 1 0 0 0 0 1 0 0 0 0 1 0 0 0 0.75 0"/>
<feBlend mode="normal" in2="shape" result="effect2_innerShadow_155_14040"/>
</filter>
<filter id="filter1_di_155_14040" x="16" y="194.134" width="396" height="434.8" filterUnits="userSpaceOnUse" color-interpolation-filters="sRGB">
<feFlood flood-opacity="0" result="BackgroundImageFix"/>
<feColorMatrix in="SourceAlpha" type="matrix" values="0 0 0 0 0 0 0 0 0 0 0 0 0 0 0 0 0 0 127 0" result="hardAlpha"/>
<feOffset dx="-8" dy="8"/>
<feGaussianBlur stdDeviation="8"/>
<feComposite in2="hardAlpha" operator="out"/>
<feColorMatrix type="matrix" values="0 0 0 0 1 0 0 0 0 1 0 0 0 0 1 0 0 0 0.15 0"/>
<feBlend mode="normal" in2="BackgroundImageFix" result="effect1_dropShadow_155_14040"/>
<feBlend mode="normal" in="SourceGraphic" in2="effect1_dropShadow_155_14040" result="shape"/>
<feColorMatrix in="SourceAlpha" type="matrix" values="0 0 0 0 0 0 0 0 0 0 0 0 0 0 0 0 0 0 127 0" result="hardAlpha"/>
<feOffset dx="-4" dy="4"/>
<feGaussianBlur stdDeviation="4"/>
<feComposite in2="hardAlpha" operator="arithmetic" k2="-1" k3="1"/>
<feColorMatrix type="matrix" values="0 0 0 0 1 0 0 0 0 1 0 0 0 0 1 0 0 0 0.75 0"/>
<feBlend mode="normal" in2="shape" result="effect2_innerShadow_155_14040"/>
</filter>
<filter id="filter2_di_155_14040" x="1082.67" y="211.6" width="260.811" height="427.639" filterUnits="userSpaceOnUse" color-interpolation-filters="sRGB">
<feFlood flood-opacity="0" result="BackgroundImageFix"/>
<feColorMatrix in="SourceAlpha" type="matrix" values="0 0 0 0 0 0 0 0 0 0 0 0 0 0 0 0 0 0 127 0" result="hardAlpha"/>
<feOffset dx="-8" dy="8"/>
<feGaussianBlur stdDeviation="8"/>
<feComposite in2="hardAlpha" operator="out"/>
<feColorMatrix type="matrix" values="0 0 0 0 1 0 0 0 0 1 0 0 0 0 1 0 0 0 0.15 0"/>
<feBlend mode="normal" in2="BackgroundImageFix" result="effect1_dropShadow_155_14040"/>
<feBlend mode="normal" in="SourceGraphic" in2="effect1_dropShadow_155_14040" result="shape"/>
<feColorMatrix in="SourceAlpha" type="matrix" values="0 0 0 0 0 0 0 0 0 0 0 0 0 0 0 0 0 0 127 0" result="hardAlpha"/>
<feOffset dx="-4" dy="4"/>
<feGaussianBlur stdDeviation="4"/>
<feComposite in2="hardAlpha" operator="arithmetic" k2="-1" k3="1"/>
<feColorMatrix type="matrix" values="0 0 0 0 1 0 0 0 0 1 0 0 0 0 1 0 0 0 0.75 0"/>
<feBlend mode="normal" in2="shape" result="effect2_innerShadow_155_14040"/>
</filter>
<filter id="filter3_di_155_14040" x="760" y="260.177" width="342.933" height="364.545" filterUnits="userSpaceOnUse" color-interpolation-filters="sRGB">
<feFlood flood-opacity="0" result="BackgroundImageFix"/>
<feColorMatrix in="SourceAlpha" type="matrix" values="0 0 0 0 0 0 0 0 0 0 0 0 0 0 0 0 0 0 127 0" result="hardAlpha"/>
<feOffset dx="-8" dy="-8"/>
<feGaussianBlur stdDeviation="8"/>
<feComposite in2="hardAlpha" operator="out"/>
<feColorMatrix type="matrix" values="0 0 0 0 1 0 0 0 0 1 0 0 0 0 1 0 0 0 0.15 0"/>
<feBlend mode="normal" in2="BackgroundImageFix" result="effect1_dropShadow_155_14040"/>
<feBlend mode="normal" in="SourceGraphic" in2="effect1_dropShadow_155_14040" result="shape"/>
<feColorMatrix in="SourceAlpha" type="matrix" values="0 0 0 0 0 0 0 0 0 0 0 0 0 0 0 0 0 0 127 0" result="hardAlpha"/>
<feOffset dx="-4" dy="4"/>
<feGaussianBlur stdDeviation="4"/>
<feComposite in2="hardAlpha" operator="arithmetic" k2="-1" k3="1"/>
<feColorMatrix type="matrix" values="0 0 0 0 1 0 0 0 0 1 0 0 0 0 1 0 0 0 0.75 0"/>
<feBlend mode="normal" in2="shape" result="effect2_innerShadow_155_14040"/>
</filter>
<filter id="filter4_di_155_14040" x="391.383" y="278.467" width="380.617" height="359.162" filterUnits="userSpaceOnUse" color-interpolation-filters="sRGB">
<feFlood flood-opacity="0" result="BackgroundImageFix"/>
<feColorMatrix in="SourceAlpha" type="matrix" values="0 0 0 0 0 0 0 0 0 0 0 0 0 0 0 0 0 0 127 0" result="hardAlpha"/>
<feOffset dx="-8" dy="8"/>
<feGaussianBlur stdDeviation="8"/>
<feComposite in2="hardAlpha" operator="out"/>
<feColorMatrix type="matrix" values="0 0 0 0 1 0 0 0 0 1 0 0 0 0 1 0 0 0 0.15 0"/>
<feBlend mode="normal" in2="BackgroundImageFix" result="effect1_dropShadow_155_14040"/>
<feBlend mode="normal" in="SourceGraphic" in2="effect1_dropShadow_155_14040" result="shape"/>
<feColorMatrix in="SourceAlpha" type="matrix" values="0 0 0 0 0 0 0 0 0 0 0 0 0 0 0 0 0 0 127 0" result="hardAlpha"/>
<feOffset dx="-4" dy="4"/>
<feGaussianBlur stdDeviation="4"/>
<feComposite in2="hardAlpha" operator="arithmetic" k2="-1" k3="1"/>
<feColorMatrix type="matrix" values="0 0 0 0 1 0 0 0 0 1 0 0 0 0 1 0 0 0 0.75 0"/>
<feBlend mode="normal" in2="shape" result="effect2_innerShadow_155_14040"/>
</filter>
<filter id="filter5_di_155_14040" x="1337.33" y="278.788" width="272.4" height="350.146" filterUnits="userSpaceOnUse" color-interpolation-filters="sRGB">
<feFlood flood-opacity="0" result="BackgroundImageFix"/>
<feColorMatrix in="SourceAlpha" type="matrix" values="0 0 0 0 0 0 0 0 0 0 0 0 0 0 0 0 0 0 127 0" result="hardAlpha"/>
<feOffset dx="-8" dy="8"/>
<feGaussianBlur stdDeviation="8"/>
<feComposite in2="hardAlpha" operator="out"/>
<feColorMatrix type="matrix" values="0 0 0 0 1 0 0 0 0 1 0 0 0 0 1 0 0 0 0.15 0"/>
<feBlend mode="normal" in2="BackgroundImageFix" result="effect1_dropShadow_155_14040"/>
<feBlend mode="normal" in="SourceGraphic" in2="effect1_dropShadow_155_14040" result="shape"/>
<feColorMatrix in="SourceAlpha" type="matrix" values="0 0 0 0 0 0 0 0 0 0 0 0 0 0 0 0 0 0 127 0" result="hardAlpha"/>
<feOffset dx="-4" dy="4"/>
<feGaussianBlur stdDeviation="4"/>
<feComposite in2="hardAlpha" operator="arithmetic" k2="-1" k3="1"/>
<feColorMatrix type="matrix" values="0 0 0 0 1 0 0 0 0 1 0 0 0 0 1 0 0 0 0.75 0"/>
<feBlend mode="normal" in2="shape" result="effect2_innerShadow_155_14040"/>
</filter>
</defs>
</svg>
